<svg width="12" height="12" viewBox="0 0 12 12" fill="none" xmlns="http://www.w3.org/2000/svg">
<path d="M10.75 2H9.41671V3C9.41671 3.0963 9.39774 3.19166 9.36089 3.28063C9.32404 3.36961 9.27002 3.45045 9.20192 3.51855C9.13383 3.58664 9.05299 3.64066 8.96401 3.67751C8.87504 3.71437 8.77968 3.73333 8.68338 3.73333C8.58708 3.73333 8.49172 3.71437 8.40274 3.67751C8.31377 3.64066 8.23293 3.58664 8.16483 3.51855C8.09674 3.45045 8.04272 3.36961 8.00587 3.28063C7.96901 3.19166 7.95005 3.0963 7.95005 3V2H4.06671V3C4.06671 3.19449 3.98945 3.38102 3.85192 3.51855C3.7144 3.65607 3.52787 3.73333 3.33338 3.73333C3.13889 3.73333 2.95236 3.65607 2.81483 3.51855C2.67731 3.38102 2.60005 3.19449 2.60005 3V2H1.26671C1.18739 1.9991 1.10868 2.01411 1.03526 2.04415C0.961841 2.0742 0.895189 2.11866 0.839249 2.17491C0.78331 2.23116 0.739218 2.29806 0.709583 2.37164C0.679947 2.44523 0.665369 2.52401 0.666712 2.60333V10.0633C0.665387 10.1413 0.679426 10.2187 0.708027 10.2912C0.736627 10.3637 0.779229 10.4298 0.833399 10.4858C0.887569 10.5419 0.952245 10.5867 1.02373 10.6177C1.09522 10.6487 1.17212 10.6654 1.25005 10.6667H10.75C10.828 10.6654 10.9049 10.6487 10.9764 10.6177C11.0478 10.5867 11.1125 10.5419 11.1667 10.4858C11.2209 10.4298 11.2635 10.3637 11.2921 10.2912C11.3207 10.2187 11.3347 10.1413 11.3334 10.0633V2.60333C11.3347 2.52541 11.3207 2.44799 11.2921 2.3755C11.2635 2.30301 11.2209 2.23686 11.1667 2.18083C11.1125 2.1248 11.0478 2.08 10.9764 2.04897C10.9049 2.01794 10.828 2.0013 10.75 2ZM3.33338 8.66667H2.66671V8H3.33338V8.66667ZM3.33338 7H2.66671V6.33333H3.33338V7ZM3.33338 5.33333H2.66671V4.66667H3.33338V5.33333ZM5.33338 8.66667H4.66671V8H5.33338V8.66667ZM5.33338 7H4.66671V6.33333H5.33338V7ZM5.33338 5.33333H4.66671V4.66667H5.33338V5.33333ZM7.33338 8.66667H6.66671V8H7.33338V8.66667ZM7.33338 7H6.66671V6.33333H7.33338V7ZM7.33338 5.33333H6.66671V4.66667H7.33338V5.33333ZM9.33338 8.66667H8.66671V8H9.33338V8.66667ZM9.33338 7H8.66671V6.33333H9.33338V7ZM9.33338 5.33333H8.66671V4.66667H9.33338V5.33333Z" fill="#0F222B"/>
<path d="M3.33333 3.33333C3.42174 3.33333 3.50652 3.29821 3.56904 3.2357C3.63155 3.17319 3.66667 3.0884 3.66667 3V0.999997C3.66667 0.911592 3.63155 0.826807 3.56904 0.764295C3.50652 0.701783 3.42174 0.666664 3.33333 0.666664C3.24493 0.666664 3.16014 0.701783 3.09763 0.764295C3.03512 0.826807 3 0.911592 3 0.999997V3C3 3.0884 3.03512 3.17319 3.09763 3.2357C3.16014 3.29821 3.24493 3.33333 3.33333 3.33333Z" fill="#0F222B"/>
<path d="M8.66671 3.33333C8.75511 3.33333 8.8399 3.29821 8.90241 3.2357C8.96492 3.17319 9.00004 3.0884 9.00004 3V0.999997C9.00004 0.911592 8.96492 0.826807 8.90241 0.764295C8.8399 0.701783 8.75511 0.666664 8.66671 0.666664C8.5783 0.666664 8.49352 0.701783 8.431 0.764295C8.36849 0.826807 8.33337 0.911592 8.33337 0.999997V3C8.33337 3.0884 8.36849 3.17319 8.431 3.2357C8.49352 3.29821 8.5783 3.33333 8.66671 3.33333Z" fill="#0F222B"/>
</svg>
