<svg width="18" height="22" viewBox="0 0 18 22" fill="none" xmlns="http://www.w3.org/2000/svg">
<path d="M15.4113 12.4228C15.5832 12.658 15.7264 12.8982 15.802 13.146H14.7366C14.2655 13.5496 13.8612 13.6712 13.444 13.6712C13.0283 13.6712 12.6161 13.5482 12.1399 13.146H9.33684V10.0031C9.54396 10.0124 9.74114 10.044 9.94387 10.0628C9.21951 8.75149 8.29881 6.83165 8.00971 5.5779C7.9996 5.53471 7.99601 5.49157 7.98669 5.44843C3.75499 5.82094 0.424561 9.37972 0.424561 13.7057C0.424561 18.279 4.14555 22 8.71961 22C13.293 22 17.0132 18.279 17.0132 13.7057C17.0132 13.7057 17.0132 13.7057 17.0132 13.7053C17.0132 13.7053 17.0132 13.705 17.0132 13.7046C17.0132 12.6893 16.8204 11.72 16.4853 10.8201C16.0818 11.4978 15.7293 12.021 15.4113 12.4228ZM5.6762 7.2172C5.21448 7.85057 4.82672 8.6292 4.52967 9.51536C3.6428 9.8128 2.86377 10.2012 2.23014 10.6637C2.94212 9.15136 4.16426 7.92923 5.6762 7.2172ZM4.17069 10.8554C4.02117 11.5754 3.92765 12.3426 3.89746 13.146H1.63951C1.91718 12.2394 2.84577 11.4283 4.17069 10.8554ZM1.63951 14.2653H3.89746C3.92765 15.0684 4.02117 15.8355 4.17069 16.5556C2.84643 15.9826 1.91784 15.172 1.63951 14.2653ZM2.23009 16.7472C2.86306 17.2101 3.64276 17.5985 4.52892 17.8959C4.82672 18.7821 5.21448 19.5608 5.6762 20.1941C4.16426 19.482 2.94212 18.2599 2.23009 16.7472ZM8.21758 20.8038C7.28743 20.5487 6.45453 19.6076 5.86971 18.2549C6.60702 18.4081 7.39319 18.502 8.21758 18.5294V20.8038ZM8.21758 17.4108C7.22491 17.373 6.28124 17.2274 5.43246 16.9932C5.2022 16.1603 5.05689 15.2367 5.01583 14.2652H8.21754V17.4108H8.21758ZM8.21758 13.146H5.01587C5.05693 12.1742 5.2022 11.2507 5.43251 10.4177C6.28129 10.1836 7.22496 10.038 8.21762 10.0002V13.146H8.21758ZM8.21758 8.88168C7.39319 8.9093 6.60702 9.00322 5.86971 9.15606C6.45453 7.80374 7.28823 6.86251 8.21758 6.60755V8.88168ZM9.3368 14.2653H12.4233C12.3823 15.2385 12.2363 16.1639 12.0061 16.9979C11.1796 17.2252 10.2784 17.3655 9.3368 17.4079V14.2653ZM9.3368 20.8038V18.5268C10.1086 18.4944 10.8581 18.4009 11.5709 18.2521C11.0099 19.55 10.2208 20.5042 9.3368 20.8038ZM11.763 20.1938C12.2262 19.5587 12.6153 18.7775 12.9125 17.8885C13.4663 17.7018 13.9885 17.4813 14.4598 17.2205C14.7352 17.0681 14.9819 16.9033 15.2149 16.7329C14.5043 18.2521 13.28 19.4792 11.763 20.1938ZM13.918 16.2412C13.7123 16.3548 13.4937 16.4584 13.2685 16.5566C13.4181 15.8362 13.5116 15.0691 13.5419 14.2652H15.8011C15.5789 14.9918 14.9344 15.6791 13.918 16.2412Z" fill="#0F222B"/>
<path d="M13.444 0C10.4948 0 8.821 2.54315 9.44474 5.24663C9.88922 7.17184 12.5722 12.198 13.444 12.198C14.259 12.198 16.9923 7.17038 17.4433 5.24663C18.072 2.56971 16.4118 0 13.444 0ZM13.4907 5.18048C12.6262 5.18048 11.9256 4.47984 11.9256 3.61523C11.9256 2.75062 12.6262 2.05003 13.4907 2.05003C14.3554 2.05003 15.0559 2.75062 15.0559 3.61523C15.0559 4.47984 14.3554 5.18048 13.4907 5.18048Z" fill="#F14D24"/>
</svg>
