<svg width="12" height="12" viewBox="0 0 12 12" fill="none" xmlns="http://www.w3.org/2000/svg">
<g clip-path="url(#clip0_11_282)">
<path d="M9.49702 6.77608C9.59079 6.90437 9.66889 7.03541 9.71013 7.17056H9.12903C8.87208 7.3907 8.65155 7.457 8.42398 7.457C8.19724 7.457 7.9724 7.38993 7.71264 7.17056H6.18369V5.45622C6.29667 5.46133 6.40422 5.47857 6.5148 5.48878C6.1197 4.77354 5.6175 3.72636 5.4598 3.04249C5.45429 3.01894 5.45233 2.9954 5.44725 2.97187C3.13905 3.17506 1.32245 5.11621 1.32245 7.47584C1.32245 9.97037 3.35208 12 5.84702 12C8.3416 12 10.3708 9.97037 10.3708 7.47584C10.3708 7.47584 10.3708 7.47584 10.3708 7.47562C10.3708 7.47562 10.3708 7.47545 10.3708 7.47523C10.3708 6.92144 10.2656 6.39273 10.0829 5.9019C9.86274 6.27151 9.67046 6.55693 9.49702 6.77608ZM4.18698 3.93666C3.93513 4.28213 3.72362 4.70684 3.5616 5.1902C3.07785 5.35244 2.65293 5.56431 2.30731 5.81655C2.69567 4.99165 3.36228 4.32504 4.18698 3.93666ZM3.36579 5.92113C3.28423 6.31386 3.23323 6.73231 3.21676 7.17054H1.98515C2.1366 6.67603 2.64311 6.23364 3.36579 5.92113ZM1.98515 7.78107H3.21676C3.23323 8.21913 3.28423 8.63757 3.36579 9.0303C2.64347 8.7178 2.13697 8.27562 1.98515 7.78107ZM2.30728 9.13486C2.65254 9.38734 3.07783 9.59919 3.56119 9.76143C3.72362 10.2448 3.93513 10.6695 4.18698 11.015C3.36228 10.6266 2.69567 9.95997 2.30728 9.13486ZM5.57319 11.3475C5.06583 11.2084 4.61152 10.695 4.29253 9.95724C4.6947 10.0408 5.12352 10.092 5.57319 10.1069V11.3475ZM5.57319 9.49681C5.03173 9.4762 4.517 9.39675 4.05403 9.26905C3.92843 8.81471 3.84917 8.31091 3.82678 7.78104H5.57316V9.49681H5.57319ZM5.57319 7.17056H3.8268C3.8492 6.6405 3.92843 6.13675 4.05405 5.68241C4.51703 5.55471 5.03176 5.47526 5.57321 5.45465V7.17056H5.57319ZM5.57319 4.84455C5.12352 4.85962 4.6947 4.91085 4.29253 4.99422C4.61152 4.25659 5.06627 3.74319 5.57319 3.60412V4.84455ZM6.18367 7.78107H7.86722C7.84487 8.3119 7.7652 8.81667 7.63965 9.27161C7.18884 9.39556 6.69726 9.47211 6.18367 9.49523V7.78107ZM6.18367 11.3475V10.1055C6.60465 10.0879 7.01347 10.0369 7.40229 9.95569C7.09626 10.6636 6.66584 11.1841 6.18367 11.3475ZM7.50706 11.0148C7.75973 10.6684 7.97197 10.2423 8.13404 9.75734C8.43612 9.65552 8.72099 9.53526 8.97801 9.39302C9.12826 9.30985 9.26283 9.22 9.3899 9.12702C9.0023 9.95569 8.33452 10.625 7.50706 11.0148ZM8.68251 8.85883C8.57028 8.92081 8.45105 8.97734 8.32823 9.03088C8.40986 8.63793 8.46082 8.21951 8.47734 7.78104H9.70967C9.58845 8.17736 9.2369 8.55224 8.68251 8.85883Z" fill="#0F222B"/>
<path d="M8.42395 0C6.81533 0 5.90232 1.38717 6.24255 2.8618C6.48499 3.91191 7.94842 6.65344 8.42395 6.65344C8.86851 6.65344 10.3594 3.91112 10.6054 2.8618C10.9483 1.40166 10.0428 0 8.42395 0ZM8.44944 2.82571C7.97788 2.82571 7.59574 2.44355 7.59574 1.97194C7.59574 1.50034 7.97788 1.1182 8.44944 1.1182C8.92109 1.1182 9.30318 1.50034 9.30318 1.97194C9.30318 2.44355 8.92109 2.82571 8.44944 2.82571Z" fill="#0F222B"/>
</g>
<defs>
<clipPath id="clip0_11_282">
<rect width="12" height="12" fill="white"/>
</clipPath>
</defs>
</svg>
