<svg width="46" height="46" viewBox="0 0 46 46" fill="none" xmlns="http://www.w3.org/2000/svg">
<g clip-path="url(#clip0_11_12)">
<path d="M46 23C46 27.3467 44.794 31.4114 42.6972 34.8788C40.9114 37.8388 38.4748 40.3606 35.5871 42.2534C35.4121 42.3677 35.2342 42.4804 35.0564 42.5903C34.6775 42.8246 34.29 43.0473 33.8952 43.2598C33.8374 43.2916 33.7795 43.322 33.7217 43.3524C32.8483 43.8151 31.9416 44.2214 31.0046 44.5685H31.0031C28.9324 45.3377 26.7199 45.8178 24.415 45.9566C24.0245 45.9812 23.6298 45.9942 23.2321 45.9986C23.2046 45.9986 23.1757 45.9986 23.1482 45.9986C23.0991 45.9986 23.0499 45.9986 23.0007 45.9986H22.979C22.8937 45.9986 22.8098 45.9986 22.726 45.9986C22.3428 45.9942 21.9639 45.9798 21.5865 45.9566C19.2728 45.8164 17.0517 45.3348 14.9723 44.5598C14.1654 44.259 13.3802 43.9149 12.621 43.5288C12.4461 43.442 12.274 43.3524 12.1034 43.2598C11.7115 43.0487 11.3254 42.826 10.948 42.5932C10.7585 42.4761 10.572 42.3575 10.3855 42.2361C7.51074 40.3462 5.08283 37.8287 3.30131 34.8788C1.206 31.4114 0 27.3467 0 23C0 10.2984 10.2973 0 23.0007 0C35.7042 0 46 10.2984 46 23Z" fill="#FF9D83"/>
<path d="M26.5305 38.2191V33.2449H19.4261V38.2191C19.4261 38.2191 13.2617 39.0245 10.3855 42.2361C10.572 42.3575 10.7586 42.4761 10.948 42.5932C11.3254 42.826 11.7115 43.0487 12.1034 43.2598C13.0231 43.7558 13.9818 44.1911 14.9723 44.5598C17.0517 45.3348 19.2729 45.8164 21.5865 45.9566C21.9639 45.9798 22.3428 45.9942 22.726 45.9985C22.8099 45.9985 22.8938 45.9985 22.9791 45.9985H23.0008C23.0774 45.9985 23.1555 45.9985 23.2321 45.9985C23.6298 45.9942 24.0246 45.9812 24.415 45.9566C26.72 45.8178 28.9324 45.3377 31.0031 44.5685H31.0046C32.0038 44.1983 32.9683 43.7602 33.8952 43.2598C34.29 43.0473 34.6775 42.8246 35.0564 42.5903C35.2343 42.4804 35.4121 42.3677 35.5871 42.2534C32.7182 39.0274 26.5305 38.2191 26.5305 38.2191Z" fill="#FDDCAB"/>
<path d="M9.98207 22.3869C10.238 25.3208 12.0933 25.4972 12.0933 25.4972L12.1208 19.6236C12.1208 19.6236 9.72323 19.4515 9.98207 22.3869Z" fill="#FDDCAB"/>
<path d="M23.0022 7.88644C16.9447 7.88644 12.0354 12.797 12.0354 18.8529V25.2398C12.0354 31.2971 16.9462 36.2063 23.0022 36.2063L23.0022 7.88644Z" fill="#FDDCAB"/>
<path d="M35.9702 22.2987C35.7143 25.2326 33.859 25.409 33.859 25.409L33.8315 19.5354C33.8315 19.5354 36.2291 19.3633 35.9702 22.2987Z" fill="#FFEAD5"/>
<path d="M23.0022 7.88644L23.0022 36.2077C29.0597 36.2077 33.969 31.2971 33.969 25.2413V18.8543C33.969 12.797 29.0582 7.88789 23.0022 7.88789V7.88644Z" fill="#FFEAD5"/>
<path d="M35.587 42.2534L33.7216 43.3524C32.8482 43.8151 31.9416 44.2214 31.0045 44.5685H31.0031C28.9324 45.3377 26.7199 45.8178 24.4149 45.9566C24.0245 45.9812 23.6297 45.9942 23.2321 45.9985C23.2046 45.9985 23.1757 45.9985 23.1482 45.9985V42.7075H23.1525C23.2017 42.7075 23.2465 42.7031 23.2971 42.7031C27.4791 42.6164 28.2383 38.4331 28.2383 38.4331C28.3496 38.4403 28.4581 38.4505 28.5651 38.4664C32.8049 39.12 35.587 42.2534 35.587 42.2534Z" fill="#FF3932"/>
<path d="M23.1483 42.7075V45.9985C23.0991 45.9985 23.0499 45.9985 23.0008 45.9985H22.9791C22.8938 45.9985 22.8099 45.9985 22.726 45.9985C22.3428 45.9942 21.9639 45.9798 21.5865 45.9566C19.2729 45.8164 17.0517 45.3348 14.9723 44.5598C14.1654 44.259 13.3802 43.9149 12.6211 43.5288L10.3855 42.2361C10.3855 42.2361 13.0838 39.0824 17.7328 38.4664C17.8413 38.4519 17.9468 38.4403 18.0596 38.4331C18.0596 38.4331 18.8188 42.6164 22.9993 42.7031C23.0499 42.7031 23.0962 42.7075 23.1454 42.7075H23.1483Z" fill="#DB242D"/>
<path d="M21.3826 23.5784V20.9062C21.3826 20.831 21.3234 20.7717 21.2568 20.7717H15.9788V23.5625C15.9788 24.2884 16.5673 24.8769 17.2932 24.8769H20.0841C20.8013 24.8769 21.3826 24.2956 21.3826 23.5784ZM22.2257 19.9287V23.5784C22.2257 24.7612 21.267 25.7199 20.0841 25.7199H17.3019C16.1104 25.7199 15.1357 24.7453 15.1357 23.5538V20.1066C15.1357 20.0082 15.2153 19.9302 15.3122 19.9302H22.2257V19.9287Z" fill="#1F1F24"/>
<path d="M24.5828 23.7563V20.9062C24.5828 20.831 24.6421 20.7717 24.7086 20.7717H29.9866V23.7389C29.9866 24.3679 29.4776 24.8769 28.8486 24.8769H25.7035C25.0846 24.8769 24.5828 24.3751 24.5828 23.7563ZM23.7397 19.9287V23.7563C23.7397 24.8408 24.6189 25.7199 25.7035 25.7199H28.8399C29.9346 25.7199 30.8297 24.8249 30.8297 23.7302V19.9287H23.7397Z" fill="#1F1F24"/>
<path d="M15.555 20.7717H12.9999L12.7454 19.9287H15.555V20.7717Z" fill="#1F1F24"/>
<path d="M30.4102 20.7717H32.9668L33.2198 19.9287H30.4102V20.7717Z" fill="#1F1F24"/>
<path d="M23.9407 19.9287H22.0247V20.7717H23.9407V19.9287Z" fill="#1F1F24"/>
<path d="M12.9941 20.7775V17.6252C12.9941 17.0223 13.1228 16.4511 13.347 15.9305C20.1072 10.4546 25.0107 20.7067 32.9264 16.9022C32.9669 17.1379 32.9987 17.3765 32.9987 17.6238L32.9495 20.6777C33.6306 20.001 34.1136 19.5716 34.7151 19.6713L35.0651 17.3548C35.1547 14.9371 34.2408 12.5946 32.5837 10.8377C30.1861 8.29568 27.7886 7.47147 22.995 7.47147C18.2013 7.47147 15.8023 8.29568 13.4063 10.8377C11.7491 12.5961 10.8352 14.9371 10.9249 17.3548L11.2748 19.7566C11.8778 19.6583 12.4981 20.0675 12.9912 20.7775H12.9941Z" fill="#1F1F24"/>
</g>
<defs>
<clipPath id="clip0_11_12">
<rect width="46" height="46" fill="white"/>
</clipPath>
</defs>
</svg>
