<svg width="18" height="27" viewBox="0 0 18 27" fill="none" xmlns="http://www.w3.org/2000/svg">
<path d="M8.99998 0C4.15258 0 0.208984 3.94359 0.208984 8.79099C0.208984 10.1129 0.495328 11.3834 1.05984 12.568C1.0712 12.5933 1.08313 12.6182 1.09586 12.6431L7.7379 25.5035C7.98175 25.9755 8.46865 26.2721 8.99986 26.2721C9.53119 26.2721 10.0181 25.9756 10.2618 25.5035L16.9021 12.6466C16.9135 12.6245 16.9242 12.6021 16.9344 12.5795C17.5027 11.3915 17.7907 10.1172 17.7907 8.79099C17.791 3.94359 13.8474 0 8.99998 0ZM8.99998 13.3924C6.46276 13.3924 4.39858 11.3282 4.39858 8.79099C4.39858 6.25389 6.46276 4.18971 8.99998 4.18971C11.5372 4.18971 13.6014 6.25389 13.6014 8.79099C13.6014 11.3282 11.5372 13.3924 8.99998 13.3924Z" fill="#0F222B"/>
</svg>
