<svg width="97" height="51" viewBox="0 0 97 51" fill="none" xmlns="http://www.w3.org/2000/svg">
<path d="M6.069 17.168C5.047 17.168 4.137 16.993 3.339 16.643C2.541 16.293 1.911 15.817 1.449 15.215C0.987 14.599 0.728 13.913 0.672 13.157H4.221C4.263 13.563 4.452 13.892 4.788 14.144C5.124 14.396 5.537 14.522 6.027 14.522C6.475 14.522 6.818 14.438 7.056 14.27C7.308 14.088 7.434 13.857 7.434 13.577C7.434 13.241 7.259 12.996 6.909 12.842C6.559 12.674 5.992 12.492 5.208 12.296C4.368 12.1 3.668 11.897 3.108 11.687C2.548 11.463 2.065 11.12 1.659 10.658C1.253 10.182 1.05 9.545 1.05 8.747C1.05 8.075 1.232 7.466 1.596 6.92C1.974 6.36 2.52 5.919 3.234 5.597C3.962 5.275 4.823 5.114 5.817 5.114C7.287 5.114 8.442 5.478 9.282 6.206C10.136 6.934 10.626 7.9 10.752 9.104H7.434C7.378 8.698 7.196 8.376 6.888 8.138C6.594 7.9 6.202 7.781 5.712 7.781C5.292 7.781 4.97 7.865 4.746 8.033C4.522 8.187 4.41 8.404 4.41 8.684C4.41 9.02 4.585 9.272 4.935 9.44C5.299 9.608 5.859 9.776 6.615 9.944C7.483 10.168 8.19 10.392 8.736 10.616C9.282 10.826 9.758 11.176 10.164 11.666C10.584 12.142 10.801 12.786 10.815 13.598C10.815 14.284 10.619 14.9 10.227 15.446C9.849 15.978 9.296 16.398 8.568 16.706C7.854 17.014 7.021 17.168 6.069 17.168ZM11.878 11.12C11.878 9.916 12.102 8.859 12.55 7.949C13.012 7.039 13.635 6.339 14.419 5.849C15.203 5.359 16.078 5.114 17.044 5.114C17.87 5.114 18.591 5.282 19.207 5.618C19.837 5.954 20.32 6.395 20.656 6.941V5.282H24.247V17H20.656V15.341C20.306 15.887 19.816 16.328 19.186 16.664C18.57 17 17.849 17.168 17.023 17.168C16.071 17.168 15.203 16.923 14.419 16.433C13.635 15.929 13.012 15.222 12.55 14.312C12.102 13.388 11.878 12.324 11.878 11.12ZM20.656 11.141C20.656 10.245 20.404 9.538 19.9 9.02C19.41 8.502 18.808 8.243 18.094 8.243C17.38 8.243 16.771 8.502 16.267 9.02C15.777 9.524 15.532 10.224 15.532 11.12C15.532 12.016 15.777 12.73 16.267 13.262C16.771 13.78 17.38 14.039 18.094 14.039C18.808 14.039 19.41 13.78 19.9 13.262C20.404 12.744 20.656 12.037 20.656 11.141ZM28.2099 4.064C27.5799 4.064 27.0619 3.882 26.6559 3.518C26.2639 3.14 26.0679 2.678 26.0679 2.132C26.0679 1.572 26.2639 1.11 26.6559 0.745999C27.0619 0.367999 27.5799 0.178999 28.2099 0.178999C28.8259 0.178999 29.3299 0.367999 29.7219 0.745999C30.1279 1.11 30.3309 1.572 30.3309 2.132C30.3309 2.678 30.1279 3.14 29.7219 3.518C29.3299 3.882 28.8259 4.064 28.2099 4.064ZM30.0159 18.512C30.0159 19.954 29.6519 20.99 28.9239 21.62C28.1959 22.264 27.1809 22.586 25.8789 22.586H24.4719V19.541H25.3329C25.7249 19.541 26.0049 19.464 26.1729 19.31C26.3409 19.156 26.4249 18.904 26.4249 18.554V5.282H30.0159V18.512ZM33.9837 4.064C33.3537 4.064 32.8357 3.882 32.4297 3.518C32.0377 3.14 31.8417 2.678 31.8417 2.132C31.8417 1.572 32.0377 1.11 32.4297 0.745999C32.8357 0.367999 33.3537 0.178999 33.9837 0.178999C34.5997 0.178999 35.1037 0.367999 35.4957 0.745999C35.9017 1.11 36.1047 1.572 36.1047 2.132C36.1047 2.678 35.9017 3.14 35.4957 3.518C35.1037 3.882 34.5997 4.064 33.9837 4.064ZM35.7687 5.282V17H32.1777V5.282H35.7687ZM41.5421 6.941C41.8781 6.395 42.3611 5.954 42.9911 5.618C43.6211 5.282 44.3421 5.114 45.1541 5.114C46.1201 5.114 46.9951 5.359 47.7791 5.849C48.5631 6.339 49.1791 7.039 49.6271 7.949C50.0891 8.859 50.3201 9.916 50.3201 11.12C50.3201 12.324 50.0891 13.388 49.6271 14.312C49.1791 15.222 48.5631 15.929 47.7791 16.433C46.9951 16.923 46.1201 17.168 45.1541 17.168C44.3281 17.168 43.6071 17.007 42.9911 16.685C42.3751 16.349 41.8921 15.908 41.5421 15.362V17H37.9511V1.46H41.5421V6.941ZM46.6661 11.12C46.6661 10.224 46.4141 9.524 45.9101 9.02C45.4201 8.502 44.8111 8.243 44.0831 8.243C43.3691 8.243 42.7601 8.502 42.2561 9.02C41.7661 9.538 41.5211 10.245 41.5211 11.141C41.5211 12.037 41.7661 12.744 42.2561 13.262C42.7601 13.78 43.3691 14.039 44.0831 14.039C44.7971 14.039 45.4061 13.78 45.9101 13.262C46.4141 12.73 46.6661 12.016 46.6661 11.12ZM63.355 5.282V17H59.764V15.404C59.4 15.922 58.903 16.342 58.273 16.664C57.657 16.972 56.971 17.126 56.215 17.126C55.319 17.126 54.528 16.93 53.842 16.538C53.156 16.132 52.624 15.551 52.246 14.795C51.868 14.039 51.679 13.15 51.679 12.128V5.282H55.249V11.645C55.249 12.429 55.452 13.038 55.858 13.472C56.264 13.906 56.81 14.123 57.496 14.123C58.196 14.123 58.749 13.906 59.155 13.472C59.561 13.038 59.764 12.429 59.764 11.645V5.282H63.355ZM69.1054 7.235C69.5254 6.591 70.0504 6.087 70.6804 5.723C71.3104 5.345 72.0104 5.156 72.7804 5.156V8.957H71.7934C70.8974 8.957 70.2254 9.153 69.7774 9.545C69.3294 9.923 69.1054 10.595 69.1054 11.561V17H65.5144V5.282H69.1054V7.235ZM42.3408 45.168C41.3188 45.168 40.4088 44.993 39.6108 44.643C38.8128 44.293 38.1828 43.817 37.7208 43.215C37.2588 42.599 36.9998 41.913 36.9438 41.157H40.4928C40.5348 41.563 40.7238 41.892 41.0598 42.144C41.3958 42.396 41.8088 42.522 42.2988 42.522C42.7468 42.522 43.0898 42.438 43.3278 42.27C43.5798 42.088 43.7058 41.857 43.7058 41.577C43.7058 41.241 43.5308 40.996 43.1808 40.842C42.8308 40.674 42.2638 40.492 41.4798 40.296C40.6398 40.1 39.9398 39.897 39.3798 39.687C38.8198 39.463 38.3368 39.12 37.9308 38.658C37.5248 38.182 37.3218 37.545 37.3218 36.747C37.3218 36.075 37.5038 35.466 37.8678 34.92C38.2458 34.36 38.7918 33.919 39.5058 33.597C40.2338 33.275 41.0948 33.114 42.0888 33.114C43.5588 33.114 44.7138 33.478 45.5538 34.206C46.4078 34.934 46.8978 35.9 47.0238 37.104H43.7058C43.6498 36.698 43.4678 36.376 43.1598 36.138C42.8658 35.9 42.4738 35.781 41.9838 35.781C41.5638 35.781 41.2418 35.865 41.0178 36.033C40.7938 36.187 40.6818 36.404 40.6818 36.684C40.6818 37.02 40.8568 37.272 41.2068 37.44C41.5708 37.608 42.1308 37.776 42.8868 37.944C43.7548 38.168 44.4618 38.392 45.0078 38.616C45.5538 38.826 46.0298 39.176 46.4358 39.666C46.8558 40.142 47.0728 40.786 47.0868 41.598C47.0868 42.284 46.8908 42.9 46.4988 43.446C46.1208 43.978 45.5678 44.398 44.8398 44.706C44.1258 45.014 43.2928 45.168 42.3408 45.168ZM48.1497 39.12C48.1497 37.916 48.3737 36.859 48.8217 35.949C49.2837 35.039 49.9067 34.339 50.6907 33.849C51.4747 33.359 52.3497 33.114 53.3157 33.114C54.1417 33.114 54.8627 33.282 55.4787 33.618C56.1087 33.954 56.5917 34.395 56.9277 34.941V33.282H60.5187V45H56.9277V43.341C56.5777 43.887 56.0877 44.328 55.4577 44.664C54.8417 45 54.1207 45.168 53.2947 45.168C52.3427 45.168 51.4747 44.923 50.6907 44.433C49.9067 43.929 49.2837 43.222 48.8217 42.312C48.3737 41.388 48.1497 40.324 48.1497 39.12ZM56.9277 39.141C56.9277 38.245 56.6757 37.538 56.1717 37.02C55.6817 36.502 55.0797 36.243 54.3657 36.243C53.6517 36.243 53.0427 36.502 52.5387 37.02C52.0487 37.524 51.8037 38.224 51.8037 39.12C51.8037 40.016 52.0487 40.73 52.5387 41.262C53.0427 41.78 53.6517 42.039 54.3657 42.039C55.0797 42.039 55.6817 41.78 56.1717 41.262C56.6757 40.744 56.9277 40.037 56.9277 39.141ZM67.1486 33.114C67.9746 33.114 68.6956 33.282 69.3116 33.618C69.9416 33.954 70.4246 34.395 70.7606 34.941V33.282H74.3517V44.979C74.3517 46.057 74.1347 47.03 73.7007 47.898C73.2807 48.78 72.6297 49.48 71.7477 49.998C70.8797 50.516 69.7947 50.775 68.4927 50.775C66.7566 50.775 65.3496 50.362 64.2716 49.536C63.1936 48.724 62.5776 47.618 62.4236 46.218H65.9726C66.0846 46.666 66.3506 47.016 66.7706 47.268C67.1906 47.534 67.7086 47.667 68.3246 47.667C69.0666 47.667 69.6546 47.45 70.0887 47.016C70.5366 46.596 70.7606 45.917 70.7606 44.979V43.32C70.4107 43.866 69.9277 44.314 69.3116 44.664C68.6956 45 67.9746 45.168 67.1486 45.168C66.1826 45.168 65.3076 44.923 64.5236 44.433C63.7396 43.929 63.1166 43.222 62.6546 42.312C62.2066 41.388 61.9826 40.324 61.9826 39.12C61.9826 37.916 62.2066 36.859 62.6546 35.949C63.1166 35.039 63.7396 34.339 64.5236 33.849C65.3076 33.359 66.1826 33.114 67.1486 33.114ZM70.7606 39.141C70.7606 38.245 70.5086 37.538 70.0047 37.02C69.5147 36.502 68.9126 36.243 68.1986 36.243C67.4846 36.243 66.8756 36.502 66.3716 37.02C65.8816 37.524 65.6366 38.224 65.6366 39.12C65.6366 40.016 65.8816 40.73 66.3716 41.262C66.8756 41.78 67.4846 42.039 68.1986 42.039C68.9126 42.039 69.5147 41.78 70.0047 41.262C70.5086 40.744 70.7606 40.037 70.7606 39.141ZM81.8636 45.168C80.7156 45.168 79.6796 44.923 78.7556 44.433C77.8456 43.943 77.1246 43.243 76.5926 42.333C76.0746 41.423 75.8156 40.359 75.8156 39.141C75.8156 37.937 76.0816 36.88 76.6136 35.97C77.1456 35.046 77.8736 34.339 78.7976 33.849C79.7216 33.359 80.7576 33.114 81.9056 33.114C83.0536 33.114 84.0896 33.359 85.0136 33.849C85.9376 34.339 86.6656 35.046 87.1976 35.97C87.7296 36.88 87.9956 37.937 87.9956 39.141C87.9956 40.345 87.7226 41.409 87.1766 42.333C86.6446 43.243 85.9096 43.943 84.9716 44.433C84.0476 44.923 83.0116 45.168 81.8636 45.168ZM81.8636 42.06C82.5496 42.06 83.1306 41.808 83.6066 41.304C84.0966 40.8 84.3416 40.079 84.3416 39.141C84.3416 38.203 84.1036 37.482 83.6276 36.978C83.1656 36.474 82.5916 36.222 81.9056 36.222C81.2056 36.222 80.6246 36.474 80.1626 36.978C79.7006 37.468 79.4696 38.189 79.4696 39.141C79.4696 40.079 79.6936 40.8 80.1416 41.304C80.6036 41.808 81.1776 42.06 81.8636 42.06ZM93.0717 35.235C93.4917 34.591 94.0167 34.087 94.6467 33.723C95.2767 33.345 95.9767 33.156 96.7467 33.156V36.957H95.7597C94.8637 36.957 94.1917 37.153 93.7437 37.545C93.2957 37.923 93.0717 38.595 93.0717 39.561V45H89.4807V33.282H93.0717V35.235Z" fill="#0F222B"/>
</svg>
